HIERARCHY
ROOT newVegas:Hips
{
	OFFSET 0.000000 96.479958 0.000000
	CHANNELS 6 Xposition Yposition Zposition Xrotation Yrotation Zrotation
	JOINT newVegas:Pelvis
	{
		OFFSET 0.000000 0.000000 0.000000
		CHANNELS 3 Xrotation Yrotation Zrotation
		JOINT newVegas:LeftUpLeg
		{
			OFFSET 18.735201 -5.666702 -4.541200
			CHANNELS 3 Xrotation Yrotation Zrotation
			JOINT newVegas:LeftLeg
			{
				OFFSET -0.021200 -31.938179 0.493100
				CHANNELS 3 Xrotation Yrotation Zrotation
				JOINT newVegas:LeftFoot
				{
					OFFSET 0.021200 -31.938179 -4.336299
					CHANNELS 3 Xrotation Yrotation Zrotation
					JOINT newVegas:LeftToeBase
					{
						OFFSET 0.943001 -26.722000 15.023500
						CHANNELS 3 Xrotation Yrotation Zrotation
						End Site
						{
							OFFSET 0.000000 30.670183 0.000000
						}
					}
				}
				JOINT newVegas:Left_PantLeg
				{
					OFFSET 0.663870 -9.044666 -1.108900
					CHANNELS 3 Xrotation Yrotation Zrotation
					End Site
					{
						OFFSET 1.415995 20.635357 0.000000
					}
				}
			}
		}
		JOINT newVegas:RightUpLeg
		{
			OFFSET -18.735201 -5.666702 -4.541200
			CHANNELS 3 Xrotation Yrotation Zrotation
			JOINT newVegas:RightLeg
			{
				OFFSET 0.018946 -31.938133 0.493100
				CHANNELS 3 Xrotation Yrotation Zrotation
				JOINT newVegas:RightFoot
				{
					OFFSET -0.018946 -31.938126 -4.336299
					CHANNELS 3 Xrotation Yrotation Zrotation
					JOINT newVegas:RightToeBase
					{
						OFFSET -0.943001 -26.722004 15.023500
						CHANNELS 3 Xrotation Yrotation Zrotation
						End Site
						{
							OFFSET 0.000000 30.670187 0.000000
						}
					}
				}
				JOINT newVegas:Right_PantLeg
				{
					OFFSET -0.661674 -9.044716 -1.108900
					CHANNELS 3 Xrotation Yrotation Zrotation
					End Site
					{
						OFFSET -1.415958 20.635269 0.000000
					}
				}
			}
		}
	}
	JOINT newVegas:Spine
	{
		OFFSET 0.000000 10.199997 -0.299500
		CHANNELS 3 Xrotation Yrotation Zrotation
		JOINT newVegas:Spine1
		{
			OFFSET 0.000000 11.900002 -1.516600
			CHANNELS 3 Xrotation Yrotation Zrotation
			JOINT newVegas:Spine2
			{
				OFFSET 0.000000 13.600006 -2.842500
				CHANNELS 3 Xrotation Yrotation Zrotation
				JOINT newVegas:Neck
				{
					OFFSET 0.000000 9.624100 -2.890100
					CHANNELS 3 Xrotation Yrotation Zrotation
					JOINT newVegas:Head
					{
						OFFSET 0.000000 14.068802 -1.351900
						CHANNELS 3 Xrotation Yrotation Zrotation
						JOINT newVegas:Hair_Back
						{
							OFFSET 0.000000 3.231903 -17.524799
							CHANNELS 3 Xrotation Yrotation Zrotation
							End Site
							{
								OFFSET 0.000000 19.849884 0.000000
							}
						}
						JOINT newVegas:Hair_Front
						{
							OFFSET 0.000000 31.260406 4.573800
							CHANNELS 3 Xrotation Yrotation Zrotation
							JOINT newVegas:Hair_Front1
							{
								OFFSET 0.000000 2.284103 11.993300
								CHANNELS 3 Xrotation Yrotation Zrotation
								JOINT newVegas:Hair_Front2
								{
									OFFSET 0.000000 2.284103 11.993300
									CHANNELS 3 Xrotation Yrotation Zrotation
									End Site
									{
										OFFSET 0.000000 12.208862 0.000000
									}
								}
							}
						}
						JOINT newVegas:Jowel
						{
							OFFSET 0.000000 -7.458206 6.864100
							CHANNELS 3 Xrotation Yrotation Zrotation
							End Site
							{
								OFFSET 0.000000 19.849884 0.000000
							}
						}
					}
				}
				JOINT newVegas:LeftShoulder
				{
					OFFSET 15.263000 10.923401 -0.547700
					CHANNELS 3 Xrotation Yrotation Zrotation
					JOINT newVegas:LeftArm
					{
						OFFSET 25.438599 -2.830597 -13.032500
						CHANNELS 3 Xrotation Yrotation Zrotation
						JOINT newVegas:LeftForeArm
						{
							OFFSET 29.960503 0.000000 0.000000
							CHANNELS 3 Xrotation Yrotation Zrotation
							JOINT newVegas:LeftHand
							{
								OFFSET 27.849251 0.000000 0.000000
								CHANNELS 3 Xrotation Yrotation Zrotation
								JOINT newVegas:LeftHandThumb1
								{
									OFFSET 4.487587 -3.305161 6.305391
									CHANNELS 3 Xrotation Yrotation Zrotation
									JOINT newVegas:LeftHandThumb2
									{
										OFFSET 5.480453 -3.164139 3.164143
										CHANNELS 3 Xrotation Yrotation Zrotation
										JOINT newVegas:LeftHandThumb3
										{
											OFFSET 5.159721 -2.978973 2.978967
											CHANNELS 3 Xrotation Yrotation Zrotation
											End Site
											{
												OFFSET 2.494507 5.926697 1.738678
											}
										}
									}
								}
								JOINT newVegas:LeftHandIndex1
								{
									OFFSET 18.578728 -0.527832 5.208049
									CHANNELS 3 Xrotation Yrotation Zrotation
									JOINT newVegas:LeftHandIndex2
									{
										OFFSET 3.192009 0.000000 0.000000
										CHANNELS 3 Xrotation Yrotation Zrotation
										JOINT newVegas:LeftHandIndex3
										{
											OFFSET 3.835129 0.000000 0.000000
											CHANNELS 3 Xrotation Yrotation Zrotation
											End Site
											{
												OFFSET -0.034599 3.816971 0.371180
											}
										}
									}
								}
								JOINT newVegas:LeftHandMiddle1
								{
									OFFSET 18.476105 0.000000 0.000000
									CHANNELS 3 Xrotation Yrotation Zrotation
									JOINT newVegas:LeftHandMiddle2
									{
										OFFSET 3.324875 0.000000 0.000000
										CHANNELS 3 Xrotation Yrotation Zrotation
										JOINT newVegas:LeftHandMiddle3
										{
											OFFSET 4.596550 0.000000 0.000000
											CHANNELS 3 Xrotation Yrotation Zrotation
											End Site
											{
												OFFSET 0.057701 4.578827 0.399218
											}
										}
									}
								}
								JOINT newVegas:LeftHandRing1
								{
									OFFSET 17.732719 0.121887 -4.201567
									CHANNELS 3 Xrotation Yrotation Zrotation
									JOINT newVegas:LeftHandRing2
									{
										OFFSET 2.733170 0.000000 0.000000
										CHANNELS 3 Xrotation Yrotation Zrotation
										JOINT newVegas:LeftHandRing3
										{
											OFFSET 3.178268 0.000000 0.000000
											CHANNELS 3 Xrotation Yrotation Zrotation
											End Site
											{
												OFFSET 0.119102 3.170624 0.185394
											}
										}
									}
								}
								JOINT newVegas:LeftHandPinky1
								{
									OFFSET 15.989624 -0.606689 -7.535461
									CHANNELS 3 Xrotation Yrotation Zrotation
									JOINT newVegas:LeftHandPinky2
									{
										OFFSET 2.538986 0.000000 0.000000
										CHANNELS 3 Xrotation Yrotation Zrotation
										JOINT newVegas:LeftHandPinky3
										{
											OFFSET 2.593102 0.000000 0.000000
											CHANNELS 3 Xrotation Yrotation Zrotation
											End Site
											{
												OFFSET -0.150902 2.584198 0.152708
											}
										}
									}
								}
							}
							JOINT newVegas:Left_Sleeve
							{
								OFFSET 0.267448 -0.649796 0.577675
								CHANNELS 3 Xrotation Yrotation Zrotation
								End Site
								{
									OFFSET 0.000000 15.991241 0.000000
								}
							}
							JOINT newVegas:Left_CapeC
							{
								OFFSET 15.715958 -8.608795 -6.935905
								CHANNELS 3 Xrotation Yrotation Zrotation
								JOINT newVegas:Left_CapeC1
								{
									OFFSET 0.000000 -8.688499 0.000000
									CHANNELS 3 Xrotation Yrotation Zrotation
									End Site
									{
										OFFSET 0.000000 8.688499 0.000000
									}
								}
							}
						}
						JOINT newVegas:Left_CapeB
						{
							OFFSET 26.118385 -8.608795 -7.079235
							CHANNELS 3 Xrotation Yrotation Zrotation
							JOINT newVegas:Left_CapeB1
							{
								OFFSET 0.000000 -8.688499 0.000000
								CHANNELS 3 Xrotation Yrotation Zrotation
								End Site
								{
									OFFSET 0.000000 8.688499 0.000000
								}
							}
						}
						JOINT newVegas:Left_CapeA
						{
							OFFSET 5.115639 -8.608795 -10.395809
							CHANNELS 3 Xrotation Yrotation Zrotation
							JOINT newVegas:Left_CapeA1
							{
								OFFSET 0.000000 -8.688499 0.000000
								CHANNELS 3 Xrotation Yrotation Zrotation
								End Site
								{
									OFFSET 0.000000 8.688499 0.000000
								}
							}
						}
					}
				}
				JOINT newVegas:RightShoulder
				{
					OFFSET -15.263000 10.923401 -0.547700
					CHANNELS 3 Xrotation Yrotation Zrotation
					JOINT newVegas:RightArm
					{
						OFFSET -25.438599 -2.830597 -13.032500
						CHANNELS 3 Xrotation Yrotation Zrotation
						JOINT newVegas:RightForeArm
						{
							OFFSET -29.960503 0.000000 0.000000
							CHANNELS 3 Xrotation Yrotation Zrotation
							JOINT newVegas:RightHand
							{
								OFFSET -27.849251 0.000000 0.000000
								CHANNELS 3 Xrotation Yrotation Zrotation
								JOINT newVegas:RightHandThumb1
								{
									OFFSET -4.487587 -3.305161 6.305391
									CHANNELS 3 Xrotation Yrotation Zrotation
									JOINT newVegas:RightHandThumb2
									{
										OFFSET -5.480453 -3.164139 3.164143
										CHANNELS 3 Xrotation Yrotation Zrotation
										JOINT newVegas:RightHandThumb3
										{
											OFFSET -5.159721 -2.978973 2.978967
											CHANNELS 3 Xrotation Yrotation Zrotation
											End Site
											{
												OFFSET -2.494507 5.926697 1.738678
											}
										}
									}
								}
								JOINT newVegas:RightHandIndex1
								{
									OFFSET -18.578728 -0.527832 5.208049
									CHANNELS 3 Xrotation Yrotation Zrotation
									JOINT newVegas:RightHandIndex2
									{
										OFFSET -3.192009 0.000000 0.000000
										CHANNELS 3 Xrotation Yrotation Zrotation
										JOINT newVegas:RightHandIndex3
										{
											OFFSET -3.835129 0.000000 0.000000
											CHANNELS 3 Xrotation Yrotation Zrotation
											End Site
											{
												OFFSET 0.034599 3.816971 0.371180
											}
										}
									}
								}
								JOINT newVegas:RightHandMiddle1
								{
									OFFSET -18.476105 0.000000 0.000000
									CHANNELS 3 Xrotation Yrotation Zrotation
									JOINT newVegas:RightHandMiddle2
									{
										OFFSET -3.324875 0.000000 0.000000
										CHANNELS 3 Xrotation Yrotation Zrotation
										JOINT newVegas:RightHandMiddle3
										{
											OFFSET -4.596550 0.000000 0.000000
											CHANNELS 3 Xrotation Yrotation Zrotation
											End Site
											{
												OFFSET -0.057701 4.578827 0.399218
											}
										}
									}
								}
								JOINT newVegas:RightHandRing1
								{
									OFFSET -17.732719 0.121887 -4.201567
									CHANNELS 3 Xrotation Yrotation Zrotation
									JOINT newVegas:RightHandRing2
									{
										OFFSET -2.733170 0.000000 0.000000
										CHANNELS 3 Xrotation Yrotation Zrotation
										JOINT newVegas:RightHandRing3
										{
											OFFSET -3.178268 0.000000 0.000000
											CHANNELS 3 Xrotation Yrotation Zrotation
											End Site
											{
												OFFSET -0.119102 3.170624 0.185394
											}
										}
									}
								}
								JOINT newVegas:RightHandPinky1
								{
									OFFSET -15.989624 -0.606689 -7.535461
									CHANNELS 3 Xrotation Yrotation Zrotation
									JOINT newVegas:RightHandPinky2
									{
										OFFSET -2.538986 0.000000 0.000000
										CHANNELS 3 Xrotation Yrotation Zrotation
										JOINT newVegas:RightHandPinky3
										{
											OFFSET -2.593102 0.000000 0.000000
											CHANNELS 3 Xrotation Yrotation Zrotation
											End Site
											{
												OFFSET 0.150902 2.584198 0.152708
											}
										}
									}
								}
							}
							JOINT newVegas:Right_CapeC
							{
								OFFSET -15.715958 -8.608795 -6.935905
								CHANNELS 3 Xrotation Yrotation Zrotation
								JOINT newVegas:Right_CapeC1
								{
									OFFSET 0.000000 -8.688499 0.000000
									CHANNELS 3 Xrotation Yrotation Zrotation
									End Site
									{
										OFFSET 0.000000 8.688499 0.000000
									}
								}
							}
							JOINT newVegas:Right_Sleeve
							{
								OFFSET -0.267448 -0.649994 0.577675
								CHANNELS 3 Xrotation Yrotation Zrotation
								End Site
								{
									OFFSET 0.000000 15.991302 0.000000
								}
							}
						}
						JOINT newVegas:Right_CapeA
						{
							OFFSET -5.115540 -8.608795 -10.395824
							CHANNELS 3 Xrotation Yrotation Zrotation
							JOINT newVegas:Right_CapeA1
							{
								OFFSET 0.000000 -8.688499 0.000000
								CHANNELS 3 Xrotation Yrotation Zrotation
								End Site
								{
									OFFSET 0.000000 8.688499 0.000000
								}
							}
						}
						JOINT newVegas:Right_CapeB
						{
							OFFSET -26.118187 -8.608795 -7.079266
							CHANNELS 3 Xrotation Yrotation Zrotation
							JOINT newVegas:Right_CapeB1
							{
								OFFSET 0.000000 -8.688499 0.000000
								CHANNELS 3 Xrotation Yrotation Zrotation
								End Site
								{
									OFFSET 0.000000 8.688499 0.000000
								}
							}
						}
					}
				}
				JOINT newVegas:Left_Collar
				{
					OFFSET 18.625099 8.655502 8.828100
					CHANNELS 3 Xrotation Yrotation Zrotation
					JOINT newVegas:Left_Collar1
					{
						OFFSET 14.783401 10.540405 -1.259500
						CHANNELS 3 Xrotation Yrotation Zrotation
						End Site
						{
							OFFSET 0.000000 18.199875 0.000000
						}
					}
				}
				JOINT newVegas:Collar_Back
				{
					OFFSET 0.000000 15.630707 -20.132601
					CHANNELS 3 Xrotation Yrotation Zrotation
					End Site
					{
						OFFSET 0.000000 22.523010 0.000000
					}
				}
				JOINT newVegas:Left_Peck
				{
					OFFSET 17.239599 -5.132599 25.482599
					CHANNELS 3 Xrotation Yrotation Zrotation
					End Site
					{
						OFFSET 0.000000 22.523010 0.000000
					}
				}
				JOINT newVegas:Right_Peck
				{
					OFFSET -17.239599 -5.132202 25.482599
					CHANNELS 3 Xrotation Yrotation Zrotation
					End Site
					{
						OFFSET 0.000000 22.523010 0.000000
					}
				}
				JOINT newVegas:Right_Collar
				{
					OFFSET -18.625099 8.655792 8.828100
					CHANNELS 3 Xrotation Yrotation Zrotation
					JOINT newVegas:Right_Collar1
					{
						OFFSET -14.783401 10.539993 -1.259500
						CHANNELS 3 Xrotation Yrotation Zrotation
						End Site
						{
							OFFSET 0.000000 18.199631 0.000000
						}
					}
				}
			}
		}
		JOINT newVegas:Belly
		{
			OFFSET 0.000000 -6.540398 9.014299
			CHANNELS 3 Xrotation Yrotation Zrotation
			End Site
			{
				OFFSET 0.000000 11.566666 0.000000
			}
		}
	}
	JOINT newVegas:ElvisFacialAnim_Joint
	{
		OFFSET 1.000000 -95.330101 -8.825800
		CHANNELS 3 Xrotation Yrotation Zrotation
		End Site
		{
			OFFSET 0.000000 35.315800 0.000000
		}
	}
}
MOTION
Frames: 4
Frame Time: 0.016667
-7.342927 88.508926 87.911545 23.424202 13.128737 -8.518241 0.000000 0.000001 -0.000000 -36.912545 -1.928322 -7.346182 38.799627 -4.269199 -3.354280 -24.426392 1.684704 12.140934 -0.000000 0.000000 -0.000000 0.000001 -0.000000 0.000003 -58.127669 -4.524381 -15.795004 52.535950 -5.874829 0.829667 12.587409 -3.961627 18.509746 0.000002 -0.000000 -0.000001 -0.000001 0.000000 -0.000001 9.548976 1.238264 -1.760935 -0.471731 1.782883 -0.358118 -0.315420 2.367526 -0.492584 -4.382082 -0.032447 0.267593 -4.382108 -0.032454 0.267594 0.000001 0.000000 -0.000001 -4.382084 -0.032437 0.267591 -4.382081 -0.032483 0.267602 -0.000000 0.000001 -0.000000 0.000001 0.000000 -0.000000 0.804510 -1.055560 -19.731156 11.314147 -4.215711 -51.272581 0.000010 -61.671793 0.000042 -22.443202 13.772007 -17.933493 74.823971 -40.508110 61.030261 25.606287 5.176749 -82.902220 0.000003 0.000001 -0.000001 5.901617 7.863764 -80.435511 5.375075 5.831738 -85.325708 0.000000 -0.000001 -0.000000 5.020586 8.216368 -91.029380 4.694980 5.736095 -78.585076 -0.000000 -0.000002 0.000001 4.404974 8.246805 -91.688391 5.835758 5.851034 -89.849745 0.000000 0.000001 -0.000001 5.249113 8.404213 -99.924643 2.493729 4.794730 -54.937571 -0.000002 -0.000003 0.000000 0.000000 0.000000 0.000000 0.000000 0.000000 0.000000 0.000000 0.000000 0.000000 -0.000000 0.000004 0.000001 -0.000000 0.000003 0.000001 -0.000000 0.000004 0.000001 -0.000000 0.000003 0.000001 0.318341 6.828685 17.985683 14.222239 -10.989037 46.953849 -0.000019 67.377822 0.000009 -3.079470 -19.120688 7.109488 47.809712 35.835407 -5.333793 34.631316 -33.014512 35.094605 0.000000 -0.000002 0.000003 6.363580 -7.114841 84.445105 4.420392 -4.651151 87.082494 0.000006 -0.000000 -0.000000 7.913284 -6.614835 96.213494 4.359586 -4.647665 86.332662 0.000003 -0.000001 0.000000 5.619606 -6.842374 101.279964 3.622449 -4.541001 77.149111 -0.000000 0.000002 0.000001 5.448580 -6.873493 99.955194 1.714563 -3.611325 50.782518 0.000001 -0.000002 -0.000001 -0.000000 0.000000 0.000000 -0.000002 0.000000 -0.000001 -0.000000 0.000000 0.000002 0.000001 -0.000002 0.000001 0.000001 -0.000001 0.000002 0.000001 -0.000002 0.000001 0.000001 -0.000001 0.000003 -0.000002 -0.000001 0.000000 -0.000002 -0.000001 0.000000 -0.000002 -0.000001 0.000000 -0.000002 -0.000001 0.000000 -0.000002 -0.000001 0.000000 -0.000002 -0.000001 0.000000 -0.000002 -0.000001 0.000000 -0.000000 -0.000001 0.000001 0.000000 0.000001 -0.000000 
-7.161156 88.513351 90.450462 23.683322 13.738112 -8.839124 -0.000001 -0.000001 0.000000 -34.244642 -3.753701 -6.991932 37.310489 -3.220212 -3.667645 -25.856639 1.137154 11.485009 -0.000000 -0.000000 0.000000 -0.000001 0.000000 0.000002 -60.024563 -4.297971 -15.738532 50.001571 -5.947205 0.541618 12.493322 -5.165292 17.423963 -0.000001 0.000001 -0.000000 0.000000 0.000001 0.000000 9.416332 0.952856 -1.588284 -0.422837 1.770881 -0.370543 -0.273304 2.351422 -0.497371 -4.372793 -0.017021 0.243917 -4.372795 -0.017005 0.243907 -0.000000 0.000001 -0.000001 -4.372795 -0.017048 0.243921 -4.372715 -0.016965 0.243902 -0.000000 -0.000001 0.000000 -0.000000 0.000001 -0.000000 0.828882 -1.055388 -19.581365 11.301112 -4.179480 -51.475161 0.000014 -61.665509 0.000028 -22.424826 13.662192 -18.020850 74.823971 -40.508107 61.030261 25.831917 5.594324 -83.199074 0.000001 0.000001 -0.000001 5.804526 7.842047 -80.834442 5.406398 5.834203 -85.633961 0.000000 -0.000001 0.000000 5.050370 8.220815 -91.320292 4.691295 5.735352 -78.548159 -0.000001 -0.000000 0.000000 4.420638 8.250771 -91.840595 5.847120 5.851046 -89.961193 -0.000000 -0.000001 -0.000000 5.222614 8.401240 -99.673599 2.447225 4.761862 -54.379316 -0.000002 0.000000 -0.000001 -0.000000 -0.000001 -0.000000 -0.000000 -0.000001 -0.000000 -0.000000 -0.000001 0.000000 0.000000 -0.000001 -0.000000 0.000000 -0.000002 0.000000 0.000000 -0.000001 -0.000000 0.000000 -0.000002 0.000000 0.322452 6.792936 17.816152 14.532747 -11.075066 47.066034 0.000001 67.339600 -0.000004 -3.353846 -18.746257 7.238118 47.809716 35.835407 -5.333799 34.631320 -33.014515 35.094605 -0.000001 -0.000003 -0.000004 6.477994 -7.129516 84.356805 4.420349 -4.651153 87.082043 0.000001 -0.000000 0.000001 7.925204 -6.629773 95.875584 4.359692 -4.647671 86.333960 -0.000004 0.000000 0.000000 5.608970 -6.844468 101.146475 3.622727 -4.541064 77.152765 -0.000001 0.000001 0.000002 5.470993 -6.869714 100.094783 1.712295 -3.609480 50.746847 0.000001 0.000002 -0.000002 -0.000000 0.000001 0.000001 0.000000 -0.000001 0.000001 -0.000000 0.000001 0.000000 -0.000001 0.000001 -0.000000 -0.000001 0.000002 0.000002 -0.000001 0.000001 -0.000000 -0.000001 0.000002 0.000002 0.000000 -0.000001 -0.000001 0.000000 -0.000001 -0.000001 0.000000 -0.000001 -0.000001 0.000000 -0.000001 -0.000001 0.000000 -0.000001 -0.000001 0.000000 -0.000001 -0.000001 0.000000 -0.000001 -0.000001 0.000000 0.000000 -0.000000 -0.000001 -0.000001 0.000000 
-7.004602 88.363297 93.012062 23.941847 14.218949 -9.060698 -0.000002 0.000001 -0.000000 -31.542206 -5.226197 -6.565959 35.942610 -2.062654 -3.857148 -27.391634 0.400750 10.717106 0.000000 -0.000000 0.000000 -0.000002 0.000000 0.000003 -62.446145 -3.663183 -15.640020 47.479145 -5.527796 0.445091 13.057471 -6.464121 16.770394 -0.000001 0.000000 -0.000000 -0.000000 -0.000000 -0.000001 9.242251 0.658333 -1.530127 -0.374516 1.775973 -0.381383 -0.232037 2.353974 -0.505841 -4.374177 0.001110 0.227750 -4.374154 0.001113 0.227747 -0.000002 -0.000001 0.000000 -4.374232 0.001102 0.227751 -4.374025 0.001123 0.227749 -0.000000 0.000000 -0.000000 -0.000002 -0.000001 0.000001 0.850981 -1.055164 -19.445719 11.378952 -4.063367 -51.572621 0.000007 -61.739617 0.000007 -22.565943 13.410584 -18.078216 74.823971 -40.508103 61.030267 25.822070 5.576436 -83.186868 0.000000 0.000001 -0.000004 5.795703 7.839596 -80.912579 5.409756 5.834457 -85.666937 0.000001 0.000001 0.000001 5.057596 8.221869 -91.390889 4.690761 5.735248 -78.542715 0.000001 -0.000001 0.000001 4.426174 8.252159 -91.894417 5.849545 5.851050 -89.985079 -0.000001 0.000001 0.000001 5.222033 8.401172 -99.668135 2.445850 4.760886 -54.362790 -0.000001 -0.000002 -0.000001 -0.000000 -0.000002 0.000000 -0.000000 -0.000002 0.000000 -0.000000 -0.000001 0.000000 -0.000000 0.000002 -0.000000 -0.000000 0.000001 -0.000000 -0.000000 0.000002 -0.000000 0.000000 0.000001 -0.000000 0.330578 6.717012 17.586538 14.906753 -11.096834 47.280724 -0.000004 67.421166 0.000009 -3.553408 -18.320997 7.173609 47.809705 35.835414 -5.333798 34.631316 -33.014518 35.094605 0.000001 -0.000002 -0.000003 6.464555 -7.132961 84.233868 4.420337 -4.651165 87.081756 -0.000002 -0.000000 -0.000001 7.910780 -6.635636 95.783711 4.359810 -4.647664 86.335244 -0.000002 0.000000 -0.000000 5.607707 -6.844714 101.131025 3.623036 -4.541137 77.156494 -0.000002 0.000001 0.000001 5.469728 -6.869935 100.086409 1.712249 -3.609433 50.745932 -0.000001 0.000002 0.000001 0.000001 0.000000 0.000001 -0.000000 -0.000002 0.000000 0.000001 -0.000000 -0.000001 -0.000002 0.000000 0.000003 -0.000002 0.000001 0.000003 -0.000002 0.000000 0.000003 -0.000002 0.000001 0.000004 -0.000003 -0.000001 0.000001 -0.000003 -0.000001 0.000001 -0.000003 -0.000001 0.000001 -0.000003 -0.000001 0.000001 -0.000003 -0.000001 0.000001 -0.000003 -0.000001 0.000001 -0.000003 -0.000001 0.000001 -0.000002 -0.000001 0.000000 -0.000002 0.000001 -0.000000 
-6.903852 87.950119 95.699585 24.111659 14.623474 -9.079310 -0.000000 0.000001 -0.000000 -28.764556 -6.496236 -6.216973 34.968909 -0.855533 -3.933177 -29.316398 -0.318607 9.838828 0.000000 0.000001 0.000000 -0.000000 -0.000000 0.000001 -65.131468 -2.189243 -15.547414 45.055459 -7.207273 0.043881 14.684213 -5.229812 17.014898 0.000000 -0.000000 0.000000 -0.000000 0.000000 -0.000000 9.053498 0.350090 -1.716530 -0.327081 1.791591 -0.387872 -0.191799 2.389390 -0.519251 -4.392989 0.019211 0.222884 -4.393006 0.019242 0.222870 0.000001 0.000001 -0.000000 -4.393147 0.019198 0.222919 -4.392843 0.019016 0.222953 0.000001 -0.000001 0.000000 0.000001 0.000001 -0.000000 0.870928 -1.054919 -19.323109 11.546881 -4.117304 -51.490908 0.000016 -61.781424 0.000026 -22.780950 13.089982 -18.094657 74.823978 -40.508103 61.030267 25.742792 5.432248 -83.085495 0.000003 0.000002 -0.000002 5.812358 7.842446 -80.897259 5.404968 5.834093 -85.619864 0.000002 -0.000001 0.000000 5.058250 8.221962 -91.397227 4.690530 5.735197 -78.540482 -0.000003 -0.000000 0.000001 4.428758 8.252807 -91.919491 5.849375 5.851049 -89.983412 -0.000000 0.000001 -0.000001 5.228985 8.401968 -99.733985 2.457530 4.769220 -54.503533 -0.000001 0.000000 -0.000000 0.000000 0.000000 0.000000 0.000000 0.000000 0.000000 0.000000 0.000000 0.000000 0.000000 -0.000003 -0.000000 0.000000 -0.000003 -0.000000 0.000000 -0.000003 -0.000000 0.000000 -0.000003 0.000000 0.359519 6.327632 17.328663 15.284196 -11.054891 47.591180 -0.000002 67.686977 -0.000007 -3.676067 -17.827367 7.043270 47.809716 35.835407 -5.333796 34.631313 -33.014515 35.094605 0.000000 0.000002 -0.000002 6.413960 -7.132875 84.101287 4.420308 -4.651147 87.081538 -0.000002 0.000001 -0.000001 7.888759 -6.638764 95.763623 4.359900 -4.647670 86.336316 -0.000004 -0.000001 0.000002 5.609233 -6.844411 101.149897 3.623324 -4.541214 77.160183 -0.000001 -0.000001 0.000001 5.460089 -6.871573 100.035115 1.712817 -3.609908 50.755078 0.000001 0.000002 -0.000001 0.000001 -0.000000 0.000002 -0.000001 0.000001 0.000000 0.000001 -0.000001 -0.000000 -0.000000 -0.000003 -0.000003 -0.000000 -0.000002 -0.000002 -0.000000 -0.000003 -0.000003 0.000000 -0.000002 -0.000002 0.000001 0.000000 0.000001 0.000001 0.000000 0.000001 0.000001 0.000000 0.000001 0.000001 0.000000 0.000001 0.000001 0.000000 0.000001 0.000001 0.000000 0.000001 0.000001 0.000000 0.000001 0.000000 0.000001 -0.000000 -0.000000 0.000001 -0.000000 
